<svg xmlns="http://www.w3.org/2000/svg" width="40" height="40" viewBox="940 612.319 40 40"><path d="M948.044 629.63c3.2 6.29 8.356 11.423 14.645 14.645l4.889-4.889c.6-.6 1.489-.8 2.266-.533a25.349 25.349 0 0 0 7.934 1.266c1.222 0 2.222 1 2.222 2.223v7.755c0 1.222-1 2.222-2.222 2.222-20.867 0-37.778-16.91-37.778-37.777 0-1.223 1-2.223 2.222-2.223H950c1.222 0 2.222 1 2.222 2.223 0 2.777.445 5.444 1.267 7.933a2.23 2.23 0 0 1-.556 2.267l-4.889 4.888Z" fill="#fff" fill-rule="evenodd" data-name="ic_call_24px"/></svg>